HIERARCHY
ROOT Reference
{
  OFFSET 0 0 0
  CHANNELS 6 Xposition Yposition Zposition Zrotation Xrotation Yrotation
  JOINT Hips
  {
    OFFSET 251.394 724.17 483.536
    CHANNELS 3 Zrotation Xrotation Yrotation
    JOINT RightUpLeg
    {
      OFFSET -0.450515 -23.4426 -1.37224
      CHANNELS 3 Zrotation Xrotation Yrotation
      JOINT RightLeg
      {
        OFFSET 112.821 0.0872427 -0.321027
        CHANNELS 3 Zrotation Xrotation Yrotation
        JOINT RightFoot
        {
          OFFSET 105.718 0.000193788 0.0213165
          CHANNELS 3 Zrotation Xrotation Yrotation
          JOINT RightToeBase
          {
            OFFSET 37.638 -0.000116272 0.00224792
            CHANNELS 3 Zrotation Xrotation Yrotation
            JOINT RightToeEnd
            {
              OFFSET 21.2112 0.114605 -0.000138184
              CHANNELS 3 Zrotation Xrotation Yrotation
              End Site
              {
                OFFSET 0 0 0
              }
            }
          }
        }
      }
    }
    JOINT LeftUpLeg
    {
      OFFSET -0.449508 23.4315 -1.37054
      CHANNELS 3 Zrotation Xrotation Yrotation
      JOINT LeftLeg
      {
        OFFSET 112.821 -0.0485242 -0.372458
        CHANNELS 3 Zrotation Xrotation Yrotation
        JOINT LeftFoot
        {
          OFFSET 105.716 0.00496094 -0.0229443
          CHANNELS 3 Zrotation Xrotation Yrotation
          JOINT LeftToeBase
          {
            OFFSET 37.639 0 0.00158905
            CHANNELS 3 Zrotation Xrotation Yrotation
            JOINT LeftToeEnd
            {
              OFFSET 21.2113 -0.125031 -0.00017438
              CHANNELS 3 Zrotation Xrotation Yrotation
              End Site
              {
                OFFSET 0 0 0
              }
            }
          }
        }
      }
    }
    JOINT Spine
    {
      OFFSET -5.01225 0.000463591 -9.60395
      CHANNELS 3 Zrotation Xrotation Yrotation
      JOINT Spine1
      {
        OFFSET 26.0222 -0.000271301 -0.000155029
        CHANNELS 3 Zrotation Xrotation Yrotation
        JOINT Spine2
        {
          OFFSET 27.173 -0.000155029 -0.000310058
          CHANNELS 3 Zrotation Xrotation Yrotation
          JOINT Spine3
          {
            OFFSET 36.3953 -0.000232544 7.75146e-005
            CHANNELS 3 Zrotation Xrotation Yrotation
            JOINT Neck
            {
              OFFSET 36.4331 0 -3.00261
              CHANNELS 3 Zrotation Xrotation Yrotation
              JOINT Head
              {
                OFFSET 23.0407 -0.000232544 -0.000310058
                CHANNELS 3 Zrotation Xrotation Yrotation
                End Site
                {
                  OFFSET 0 0 0
                }
              }
            }
            JOINT LeftShoulder
            {
              OFFSET 20.1317 6.74168 -12.6061
              CHANNELS 3 Zrotation Xrotation Yrotation
              JOINT LeftArm
              {
                OFFSET 34.2172 -5.81359e-005 7.75146e-005
                CHANNELS 3 Zrotation Xrotation Yrotation
                JOINT LeftForeArm
                {
                  OFFSET 65.4129 -0.0821605 0.0585235
                  CHANNELS 3 Zrotation Xrotation Yrotation
                  JOINT LeftHand
                  {
                    OFFSET 67.3883 0.0359667 0.0112396
                    CHANNELS 3 Zrotation Xrotation Yrotation
                    JOINT LeftHandThumb1
                    {
                      OFFSET 8.78386 2.85353 -6.05362
                      CHANNELS 3 Zrotation Xrotation Yrotation
                      JOINT LeftHandThumb2
                      {
                        OFFSET 8.25498 -0.000116272 -0.000174407
                        CHANNELS 3 Zrotation Xrotation Yrotation
                        JOINT LeftHandThumb3
                        {
                          OFFSET 7.24822 0.000310058 5.81358e-005
                          CHANNELS 3 Zrotation Xrotation Yrotation
                          JOINT LeftHandThumb4
                          {
                            OFFSET 7.0004 -3.87568e-005 -0.000310057
                            CHANNELS 3 Zrotation Xrotation Yrotation
                            End Site
                            {
                              OFFSET 0 0 0
                            }
                          }
                        }
                      }
                    }
                    JOINT LeftHandIndex1
                    {
                      OFFSET 24.0991 -1.01537 -5.40558
                      CHANNELS 3 Zrotation Xrotation Yrotation
                      JOINT LeftHandIndex2
                      {
                        OFFSET 7.26759 -0.000290679 -0.000465086
                        CHANNELS 3 Zrotation Xrotation Yrotation
                        JOINT LeftHandIndex3
                        {
                          OFFSET 7.13628 -1.93787e-005 0.000232543
                          CHANNELS 3 Zrotation Xrotation Yrotation
                          JOINT LeftHandIndex4
                          {
                            OFFSET 5.46699 9.68932e-005 -0.000387571
                            CHANNELS 3 Zrotation Xrotation Yrotation
                            End Site
                            {
                              OFFSET 0 0 0
                            }
                          }
                        }
                      }
                    }
                    JOINT LeftHandMiddle1
                    {
                      OFFSET 24.4604 -2.52837 0.918567
                      CHANNELS 3 Zrotation Xrotation Yrotation
                      JOINT LeftHandMiddle2
                      {
                        OFFSET 7.41627 -5.81359e-005 0.000116271
                        CHANNELS 3 Zrotation Xrotation Yrotation
                        JOINT LeftHandMiddle3
                        {
                          OFFSET 8.76829 3.87573e-005 -7.75142e-005
                          CHANNELS 3 Zrotation Xrotation Yrotation
                          JOINT LeftHandMiddle4
                          {
                            OFFSET 6.07588 -0.00013565 -5.81356e-005
                            CHANNELS 3 Zrotation Xrotation Yrotation
                            End Site
                            {
                              OFFSET 0 0 0
                            }
                          }
                        }
                      }
                    }
                    JOINT LeftHandRing1
                    {
                      OFFSET 22.465 -1.97467 6.3466
                      CHANNELS 3 Zrotation Xrotation Yrotation
                      JOINT LeftHandRing2
                      {
                        OFFSET 7.36666 -0.000232544 0.000387571
                        CHANNELS 3 Zrotation Xrotation Yrotation
                        JOINT LeftHandRing3
                        {
                          OFFSET 8.07624 -0.000465087 -0.000203475
                          CHANNELS 3 Zrotation Xrotation Yrotation
                          JOINT LeftHandRing4
                          {
                            OFFSET 6.04433 0.00013565 3.87571e-005
                            CHANNELS 3 Zrotation Xrotation Yrotation
                            End Site
                            {
                              OFFSET 0 0 0
                            }
                          }
                        }
                      }
                    }
                    JOINT LeftHandPinky1
                    {
                      OFFSET 19.5278 0.352933 10.4295
                      CHANNELS 3 Zrotation Xrotation Yrotation
                      JOINT LeftHandPinky2
                      {
                        OFFSET 6.16525 5.8136e-005 -0.000251921
                        CHANNELS 3 Zrotation Xrotation Yrotation
                        JOINT LeftHandPinky3
                        {
                          OFFSET 6.14448 -0.000329434 -0.00510625
                          CHANNELS 3 Zrotation Xrotation Yrotation
                          JOINT LeftHandPinky4
                          {
                            OFFSET 4.98555 0.000116272 0.000116271
                            CHANNELS 3 Zrotation Xrotation Yrotation
                            End Site
                            {
                              OFFSET 0 0 0
                            }
                          }
                        }
                      }
                    }
                  }
                }
              }
            }
            JOINT RightShoulder
            {
              OFFSET 20.1309 -6.74152 -12.6063
              CHANNELS 3 Zrotation Xrotation Yrotation
              JOINT RightArm
              {
                OFFSET 34.2171 7.75146e-005 7.75146e-005
                CHANNELS 3 Zrotation Xrotation Yrotation
                JOINT RightForeArm
                {
                  OFFSET 65.4492 0.242543 -0.176501
                  CHANNELS 3 Zrotation Xrotation Yrotation
                  JOINT RightHand
                  {
                    OFFSET 67.3888 -0.0867388 0.0597442
                    CHANNELS 3 Zrotation Xrotation Yrotation
                    JOINT RightHandThumb1
                    {
                      OFFSET 8.78307 -2.85357 -6.05302
                      CHANNELS 3 Zrotation Xrotation Yrotation
                      JOINT RightHandThumb2
                      {
                        OFFSET 8.25493 -7.75145e-005 0
                        CHANNELS 3 Zrotation Xrotation Yrotation
                        JOINT RightHandThumb3
                        {
                          OFFSET 7.24797 -0.000174408 0.000155029
                          CHANNELS 3 Zrotation Xrotation Yrotation
                          JOINT RightHandThumb4
                          {
                            OFFSET 7.00062 0 0
                            CHANNELS 3 Zrotation Xrotation Yrotation
                            End Site
                            {
                              OFFSET 0 0 0
                            }
                          }
                        }
                      }
                    }
                    JOINT RightHandIndex1
                    {
                      OFFSET 24.0991 1.01525 -5.40578
                      CHANNELS 3 Zrotation Xrotation Yrotation
                      JOINT RightHandIndex2
                      {
                        OFFSET 7.26773 7.75144e-005 0.000232543
                        CHANNELS 3 Zrotation Xrotation Yrotation
                        JOINT RightHandIndex3
                        {
                          OFFSET 7.13572 -0.000310058 3.87571e-005
                          CHANNELS 3 Zrotation Xrotation Yrotation
                          JOINT RightHandIndex4
                          {
                            OFFSET 5.46717 0 3.87572e-005
                            CHANNELS 3 Zrotation Xrotation Yrotation
                            End Site
                            {
                              OFFSET 0 0 0
                            }
                          }
                        }
                      }
                    }
                    JOINT RightHandMiddle1
                    {
                      OFFSET 24.4603 2.52899 0.918547
                      CHANNELS 3 Zrotation Xrotation Yrotation
                      JOINT RightHandMiddle2
                      {
                        OFFSET 7.41641 -0.000116272 -0.000116272
                        CHANNELS 3 Zrotation Xrotation Yrotation
                        JOINT RightHandMiddle3
                        {
                          OFFSET 8.76765 -3.87577e-005 0.000232543
                          CHANNELS 3 Zrotation Xrotation Yrotation
                          JOINT RightHandMiddle4
                          {
                            OFFSET 6.07609 -0.000193787 -0.000116271
                            CHANNELS 3 Zrotation Xrotation Yrotation
                            End Site
                            {
                              OFFSET 0 0 0
                            }
                          }
                        }
                      }
                    }
                    JOINT RightHandRing1
                    {
                      OFFSET 22.465 1.97571 6.34696
                      CHANNELS 3 Zrotation Xrotation Yrotation
                      JOINT RightHandRing2
                      {
                        OFFSET 7.36684 0.000193786 0.000155029
                        CHANNELS 3 Zrotation Xrotation Yrotation
                        JOINT RightHandRing3
                        {
                          OFFSET 8.07614 -0.000271301 0
                          CHANNELS 3 Zrotation Xrotation Yrotation
                          JOINT RightHandRing4
                          {
                            OFFSET 6.04468 0.000232543 0
                            CHANNELS 3 Zrotation Xrotation Yrotation
                            End Site
                            {
                              OFFSET 0 0 0
                            }
                          }
                        }
                      }
                    }
                    JOINT RightHandPinky1
                    {
                      OFFSET 19.5277 -0.352346 10.4296
                      CHANNELS 3 Zrotation Xrotation Yrotation
                      JOINT RightHandPinky2
                      {
                        OFFSET 6.16508 0 0.000232543
                        CHANNELS 3 Zrotation Xrotation Yrotation
                        JOINT RightHandPinky3
                        {
                          OFFSET 6.14396 -0.000155048 -0.0048834
                          CHANNELS 3 Zrotation Xrotation Yrotation
                          JOINT RightHandPinky4
                          {
                            OFFSET 4.98577 -7.75146e-005 -7.75143e-005
                            CHANNELS 3 Zrotation Xrotation Yrotation
                            End Site
                            {
                              OFFSET 0 0 0
                            }
                          }
                        }
                      }
                    }
                  }
                }
              }
            }
          }
        }
      }
    }
  }
}
MOTION
Frames:	4
Frame Time:	0.0333333
0 0 0 -90 -7.01671e-015 -180 157.603 71.0049 102.408 -137.783 -21.4931 -45.1916 -0.548642 -0.0411217 -85.6647 -15.235 -14.3933 61.9886 -0.581127 0.0104757 67.1029 4.16217e-006 6.09484e-006 -86.4974 163.077 14.6667 -30.1833 0.209299 -0.0142448 -93.6986 0.416298 10.1218 62.0593 0.593819 -0.0265667 66.1219 3.70962e-005 -4.86091e-005 -86.4974 -0.0154221 -0.0049642 126.188 -7.75931 -6.3204 -14.3245 -11.6535 -4.5584 -14.0567 0.448042 4.68815 -14.2737 0.341481 -1.06975 34.1792 0.00288531 2.96244 42.3846 74.6251 26.1444 8.81113 39.3974 8.51648 100.337 -7.12363 4.81559 17.7483 -84.5796 -40.4273 -54.788 -156.79 -1.47445 159.601 0.000420617 -8.61581e-006 12.455 0.000263798 1.46801e-005 13.8005 -0.00522474 0.0118403 0.00373836 93.8181 85.2072 -70.743 -0.000384929 -0.000427377 13.6122 0.00112856 -0.000712849 11.1792 -0.000387534 -0.00053743 -0.807375 13.5448 89.1506 19.7233 6.99686e-005 -0.000273163 19.721 0.00102602 -0.000661348 17.1343 -0.000438983 -0.000393139 -0.799253 -57.5992 87.3473 95.3022 0.000235339 -0.000875212 23.5909 0.00153366 -0.000245973 21.0097 -0.000600462 -0.000893655 -0.806194 -65.0568 87.6665 102.667 0.00124397 -0.0011616 24.2177 0.000124534 -0.000124258 20.9462 0.00961264 -0.000140685 -0.806635 -98.2627 -22.1953 -29.2099 -32.689 1.48293 111.133 21.897 7.89293 51.4129 14.403 53.8718 -6.04157 142.213 51.8016 169.894 -0.000162022 8.4544e-005 16.9256 6.0826e-005 8.73404e-005 18.8543 -0.000274658 -7.0167e-015 179.906 -95.0295 -68.1709 -102.33 -0.000236492 -0.000252667 49.7581 8.47835e-005 -0.000145667 45.1944 0.000717163 -0.00149536 180 -105.983 -79.9218 -76.0642 -0.000172134 -5.60021e-005 65.9845 -0.000275196 0.000375567 58.5702 0.00292969 -0.00146484 180 -16.18 -83.9647 34.4434 -6.66184e-005 8.70479e-005 55.5556 -0.000195884 -1.70615e-005 57.7158 -0.00166321 7.6294e-005 180 13.4555 -78.0188 70.4019 -0.000260675 0.00047915 51.2477 -1.95941e-005 0.000111503 49.3612 -1.53928e-005 -6.1035e-005 179.874 
0 0 0 -90 -7.01671e-015 -180 172.629 73.7205 88.5966 -137.396 -27.3525 -39.1381 -0.401422 -0.0398023 -84.2369 -17.8274 -15.9339 58.188 -0.581167 0.00723426 67.4225 4.13128e-006 6.34908e-006 -86.4974 162.092 6.64442 -32.7456 0.170468 -0.0140901 -94.5879 -2.1907 7.65189 64.3636 0.59323 -0.0364549 65.1732 3.69014e-005 -8.46504e-005 -86.4974 -0.0128692 -0.00392741 125.99 -8.56442 -5.50117 -14.6093 -7.5629 -4.32078 -13.6711 0.544137 4.26274 -15.2811 -0.287186 0.201192 33.6853 3.76517 2.04061 42.1666 73.6637 26.0591 8.81132 38.9109 11.7612 101.309 -8.72043 7.0884 18.6818 -85.112 -44.8573 -61.1578 -156.632 -1.4442 160.974 0.000424114 -5.73584e-005 11.9823 0.000256454 3.92577e-005 14.5722 -0.00526784 0.0119581 0.00377188 99.5526 84.5149 -74.5929 -0.000387954 -0.000388385 14.7333 0.00114048 -0.000760738 12.5539 -0.000361623 -0.00054766 -0.675345 14.7822 89.3479 19.7913 9.22567e-005 -0.000281485 21.2206 0.00103009 -0.00065217 18.3529 -0.000426338 -0.000412438 -0.668482 -57.0045 87.3184 95.8615 0.000257926 -0.000860231 25.072 0.0015763 -0.000255353 22.2085 -0.00059302 -0.000912596 -0.674172 -61.6887 86.8535 100.473 0.00126681 -0.0011335 25.5513 0.000143913 -0.000123186 22.1599 0.00801154 -0.000162355 -0.674722 -97.2848 -22.4877 -27.4771 -33.131 2.40316 110.827 21.2266 9.96545 52.1979 11.6274 51.4245 -5.53015 142.213 51.8016 169.894 -0.000161461 8.18585e-005 16.9256 5.97291e-005 8.71908e-005 18.8543 -0.000274658 -5.79055e-014 179.907 -95.0296 -68.1709 -102.33 -0.000236013 -0.000268311 49.7581 8.20732e-005 -0.000154912 45.1944 0.000717163 -0.00154114 180 -105.983 -79.9218 -76.0642 -0.000173088 -7.15131e-005 65.9845 -0.000275502 0.000364945 58.5702 0.00292969 -0.0014801 180 -16.1801 -83.9647 34.4433 -6.71304e-005 0.000232196 55.5556 -0.000196178 -2.41321e-005 57.7158 -0.00166321 4.57764e-005 180 13.4556 -78.0189 70.4019 -0.000260852 0.000469355 51.2477 -2.19277e-005 0.000108971 49.3612 -1.53934e-005 -6.1035e-005 179.874 
0 0 0 -90 -7.01671e-015 -180 -167.541 75.9665 69.9443 -138.103 -32.8766 -34.2138 -0.279763 -0.0417315 -81.1926 -21.0371 -15.9691 53.9712 -0.581176 0.00666579 67.4785 4.27792e-006 -4.03703e-007 -86.4974 159.822 -1.13156 -36.3711 0.0369827 -0.00221845 -93.9776 -4.47325 5.18218 66.1622 0.593016 -0.0403569 64.7898 3.66118e-005 -0.000157502 -86.4974 -0.011673 -0.00311141 125.87 -9.22394 -4.49058 -14.8561 -3.41557 -3.89572 -13.2877 0.621325 4.05417 -16.1295 -0.960251 1.6403 33.3598 7.72717 1.31187 41.928 73.3926 26.0211 8.66044 38.6853 14.6623 101.091 -9.94181 8.95859 19.5263 -78.4239 -50.1887 -62.2017 -156.489 -1.4109 162.216 0.000401527 1.21086e-005 11.5548 0.000259135 2.25515e-005 15.2701 -0.00531125 0.0120749 0.00380668 104.002 83.8731 -77.3361 -0.000370785 -0.000428984 15.7473 0.00116264 -0.000723897 13.7973 -0.000336699 -0.000558117 -0.54332 15.8973 89.5277 19.8569 9.38562e-005 -0.00028345 22.577 0.00105287 -0.000675661 19.4551 -0.00041305 -0.000431831 -0.537709 -56.4553 87.2929 96.3561 0.000273139 -0.000851218 26.4116 0.00158767 -0.000178723 23.2928 -0.000585777 -0.000932167 -0.542143 -59.4344 86.1173 99.281 0.00128595 -0.00113946 26.7576 -0.0226724 -0.0099364 23.2562 0.00640948 -0.000189855 -0.542801 -96.5199 -22.7455 -25.9169 -33.3463 2.79882 110.505 20.7234 11.7472 53.5332 9.47291 49.078 -5.4859 142.213 51.8017 169.894 -0.000161675 7.51603e-005 16.9256 5.95434e-005 8.39675e-005 18.8543 -0.000274658 -7.0167e-015 179.907 -95.0297 -68.1709 -102.33 -0.00023558 -0.000299309 49.7581 8.47299e-005 -0.00016393 45.1944 0.000717163 -0.00163269 180 -105.983 -79.9218 -76.0644 -0.000173752 -0.000101188 65.9845 -0.000275569 0.000345157 58.5702 0.00292969 -0.00151062 180 -16.1803 -83.9648 34.4431 -6.74998e-005 0.00022565 55.5556 -0.000196435 -3.26833e-005 57.7158 -0.00166321 3.05176e-005 180 13.4557 -78.0189 70.402 -0.000260167 0.000451758 51.2477 -2.13793e-005 0.000109798 49.3612 -1.5394e-005 -6.1035e-005 179.873 
0 0 0 -90 -7.01671e-015 -180 -142.278 76.8139 46.0381 -139.596 -38.211 -30.6113 -0.205709 -0.0484133 -76.4743 -24.4037 -15.1708 49.7353 -0.581229 0.00349721 67.7863 3.99412e-006 -2.81902e-006 -86.4974 156.167 -8.43208 -41.0878 -0.0490446 0.00290741 -91.8431 -6.61993 3.24753 67.487 0.593077 -0.0393336 64.8915 3.48592e-005 -1.34612e-005 -86.4974 -0.0114803 -0.00277313 125.759 -9.55642 -3.38632 -15.2832 0.533348 -3.42551 -13.1416 0.679541 3.90484 -16.802 -1.81449 3.50656 33.2626 11.5873 0.346916 42.087 73.3963 25.9499 7.85897 38.761 18.2437 99.7528 -11.5971 10.7623 21.1281 -73.8519 -58.0819 -64.7731 -156.366 -1.37763 163.298 0.000399811 -1.56966e-005 11.1824 0.000254426 1.7655e-005 15.8779 -0.00535352 0.0121934 0.00383914 107.461 83.3057 -79.3078 -0.000364156 -0.000386326 16.6303 0.00117387 -0.000738721 14.88 -0.000312822 -0.000567196 -0.411286 16.8708 89.6852 19.9117 0.00438603 0.00234545 23.7611 0.00107237 -0.000632218 20.4148 -0.000398904 -0.00045115 -0.406939 -55.9677 87.2711 96.7776 0.000285172 -0.000831843 27.5783 0.00159846 -0.000226646 24.237 -0.000578958 -0.000951909 -0.410116 -57.7867 85.4763 98.5598 0.00130953 -0.00114848 27.808 0.00028033 -0.000198317 24.2136 0.00480714 -0.000210597 -0.410884 -96.2019 -22.9945 -24.4223 -33.6132 2.2456 110.15 19.6354 13.2739 55.58 7.42028 45.8712 -5.40251 142.213 51.8015 169.894 -0.000163011 6.46893e-005 16.9256 6.14171e-005 8.07826e-005 18.8543 -0.000274658 -1.08794e-013 179.908 -95.0299 -68.1709 -102.33 -0.000235562 -0.00036238 49.7581 7.75156e-005 -0.000189859 45.1944 0.000701904 -0.00144959 180 -105.983 -79.9218 -76.0644 -0.000175357 -0.000162026 65.9845 -0.000271619 0.00031398 58.5702 0.00292969 -0.00154114 180 -16.1799 -83.9646 34.4436 -6.70352e-005 0.000217648 55.5556 -0.000197297 -5.0491e-005 57.7158 -0.00166321 -3.05176e-005 180 13.4555 -78.0188 70.4019 -0.000258286 0.000415987 51.2477 -1.08735e-005 0.000119543 49.3612 -1.53945e-005 -6.1035e-005 179.873 
